<svg width="255" height="36" viewBox="0 0 255 36" fill="none" xmlns="http://www.w3.org/2000/svg">
<path d="M14.3721 16.8838L18.4186 17.0233L20.093 17.5815V24.1396C18 26.6512 16.0465 28.0466 12.9767 28.0466C6.83721 28.0466 2.7907 22.4652 2.7907 14.5117C2.7907 6.97682 7.25581 1.6745 12.8372 1.6745C15.6279 1.6745 19.6744 2.93031 21.3488 7.11636L22.0465 8.93031H23.0233L22.186 3.48845C19.814 1.6745 16.186 0.697754 13.2558 0.697754C5.5814 0.697754 0 6.83729 0 15.0698C0 23.1629 5.16279 29.0233 12.4186 29.0233C15.907 29.0233 18.4186 27.4885 20.7907 24.4187L22.0465 28.3257H22.7442V17.1629L24.6977 16.7443V16.1861H14.3721V16.8838Z" fill="black"/>
<path d="M26.2327 1.95353H28.4652L29.3024 2.51167V27.2093L28.4652 27.7675H26.2327V28.4652H35.1629V27.7675H32.9303L32.0931 27.2093V2.51167L32.9303 1.95353H35.1629V1.25586H26.2327V1.95353Z" fill="black"/>
<path d="M49.6744 0.697754C42.8372 0.697754 37.5349 6.41868 37.5349 14.7908C37.5349 23.0233 42.4186 29.0233 49.3954 29.0233C56.3721 29.0233 61.5349 23.3024 61.5349 14.9303C61.5349 6.83729 56.6512 0.697754 49.6744 0.697754ZM50.0931 28.0466C44.6512 28.0466 40.3256 22.1861 40.3256 13.814C40.3256 6.69775 43.814 1.53496 48.9768 1.53496C54.4186 1.53496 58.7442 7.39543 58.7442 15.7675C58.7442 22.8838 55.2558 28.0466 50.0931 28.0466Z" fill="black"/>
<path d="M64.186 1.95353H66.2791L67.1163 2.51167V27.2093L66.2791 27.7675H64.186V28.4652H72.9767V27.7675H70.7442L69.907 27.2093V2.51167L70.7442 1.95353H72.9767V1.25586H64.186V1.95353Z" fill="black"/>
<path d="M88.7441 0.697754H86.0929V1.11636L86.9301 3.34892L77.5813 27.3489L75.4883 27.7675V28.4652H82.186V27.7675L78.9767 27.3489V26.5117L81.9069 18.6978H92.6511L95.5813 26.5117V27.3489L92.0929 27.7675V28.4652H100.884V27.7675L98.9301 27.3489L88.7441 0.697754ZM82.3255 17.8605L87.3488 4.60473L92.372 17.8605H82.3255Z" fill="black"/>
<path d="M130.325 7.39525C129.767 7.39525 129.07 7.67432 128.512 8.23246C127.814 8.7906 127.256 9.48827 126.558 10.3255C125.86 11.1627 125.302 12.1394 124.605 13.2557C123.907 14.372 123.349 15.4883 122.791 16.6046C122.232 17.7208 121.674 18.8371 121.256 19.8139C121.116 20.2325 120.977 20.5115 120.837 20.9301C121.256 19.8139 121.535 18.6976 121.953 17.4418C122.232 16.6046 122.372 15.7673 122.651 14.9301C122.93 14.0929 123.07 13.2557 123.209 12.4185C123.488 10.7441 123.488 9.48828 122.93 8.65107C122.512 7.81386 121.535 7.39525 120.279 7.39525C119.581 7.39525 118.884 7.67432 118.046 8.37199C117.349 9.06967 116.512 9.90688 115.814 11.0232C115.116 12.1394 114.419 13.2557 113.721 14.5115C113.023 15.7673 112.465 17.0232 111.767 18.279C111.209 19.5348 110.651 20.6511 110.232 21.6278C110.232 21.6278 110.232 21.6278 110.232 21.7673L111.628 16.0464C111.907 15.0697 112.186 14.0929 112.325 13.1162C112.605 12.1394 112.744 11.3022 112.884 10.465C113.023 9.62781 113.023 9.06967 113.023 8.51153C113.023 7.95339 112.744 7.53479 112.465 7.39525C112.046 7.11618 111.628 7.11618 111.07 7.25572C110.512 7.39525 110.093 7.67432 109.674 8.09293C109.256 8.51153 108.698 9.06967 108.279 9.90688C107.86 10.6046 107.442 11.4418 107.163 12.4185L107.721 12.558C107.721 12.4185 107.86 12.1394 108.139 11.7208C108.419 11.3022 108.698 10.8836 108.977 10.465C109.256 10.0464 109.535 9.76734 109.814 9.48827C110.093 9.2092 110.232 9.34874 110.232 9.62781C110.372 10.1859 110.232 11.0232 109.953 11.9999C109.674 12.9766 109.395 14.372 108.977 15.9069C108.837 16.6046 108.558 17.1627 108.419 17.8604C108.279 18.558 108 19.2557 107.86 19.9534L105.488 28.3255H108.698L109.256 26.2325C109.535 25.6743 109.674 25.1162 109.953 24.558C110.512 23.3022 111.07 21.9069 111.767 20.5115C112.465 19.1162 113.163 17.7208 113.86 16.1859C114.558 14.7906 115.395 13.3953 116.093 12.279C116.791 11.1627 117.488 10.1859 118.186 9.48827C118.884 8.7906 119.581 8.37199 120.139 8.37199C120.558 8.37199 120.698 8.7906 120.698 9.76734C120.698 10.6046 120.419 11.8604 120 13.5348C119.302 16.0464 118.605 18.558 117.767 20.9301C116.93 23.4418 116.232 25.8139 115.535 28.3255H118.605C118.884 27.3487 119.023 26.372 119.302 25.5348C119.581 24.8371 120 23.9999 120.419 23.1627C120.977 21.9069 121.674 20.6511 122.232 19.3953C122.93 18.1394 123.628 16.7441 124.325 15.4883C125.023 14.2325 125.721 12.9766 126.419 11.9999C127.116 11.0232 127.814 10.1859 128.372 9.48827C129.07 8.7906 129.628 8.51153 130.046 8.51153C130.465 8.51153 130.605 8.93013 130.605 9.76734C130.605 10.6046 130.465 11.8604 130.046 13.5348C129.767 14.5115 129.488 15.4883 129.209 16.465C128.93 17.4418 128.512 18.4185 128.232 19.2557C127.953 20.2325 127.535 21.2092 127.256 22.0464C126.977 23.0232 126.558 23.9999 126.279 24.9766C126.139 25.5348 126.139 25.9534 126.139 26.5115C126.139 26.9301 126.279 27.3487 126.419 27.6278C126.558 27.9069 126.837 28.186 127.116 28.3255C127.395 28.465 127.674 28.465 127.953 28.465C128.651 28.465 129.349 28.1859 130.046 27.4883C130.744 26.7906 131.442 25.6743 132 23.9999L131.581 23.7208C131.581 23.8604 131.442 24.1394 131.302 24.558C131.163 24.8371 131.023 25.2557 130.744 25.5348C130.605 25.9534 130.325 26.2325 130.186 26.5115C129.907 26.7906 129.767 26.9301 129.628 26.9301C129.488 26.9301 129.488 26.9301 129.488 26.9301C129.488 26.9301 129.349 26.7906 129.349 26.6511C129.349 26.372 129.349 25.9534 129.488 25.2557C129.628 24.558 129.907 23.8604 130.186 22.8836C130.465 22.0464 130.744 21.0697 131.023 20.0929C131.302 19.1162 131.721 18.1394 132 17.1627C132.279 16.186 132.558 15.3487 132.837 14.5115C133.116 13.6743 133.256 13.1162 133.395 12.558C133.674 10.8836 133.535 9.62781 133.116 8.7906C132.558 7.81386 131.581 7.39525 130.325 7.39525Z" fill="black"/>
<path d="M149.721 23.721C149.721 23.8605 149.582 24 149.442 24.4186C149.302 24.6977 149.163 25.1163 148.884 25.5349C148.744 25.9535 148.465 26.2326 148.186 26.5117C147.907 26.7907 147.768 26.9303 147.628 26.9303C147.628 26.9303 147.488 26.9303 147.488 26.7907C147.349 26.7907 147.349 26.6512 147.349 26.5117C147.209 26.0931 147.349 25.3954 147.488 24.5582C147.628 23.721 147.907 22.7442 148.326 21.628C148.605 20.6512 148.884 19.5349 149.163 18.5582C149.442 17.4419 149.861 16.3256 150.14 15.2093L151.814 9.06981C151.395 8.65121 150.837 8.2326 150.279 8.09307C149.721 7.814 149.163 7.67446 148.605 7.53493C148.047 7.39539 147.628 7.39539 147.07 7.25586C146.651 7.25586 146.233 7.25586 145.954 7.25586C144.698 7.25586 143.442 7.39539 142.186 7.95353C141.07 8.51167 139.954 9.20935 138.837 10.0466C137.861 11.0233 136.884 12.1396 136.186 13.3954C135.349 14.6512 134.791 16.1861 134.233 17.721C133.814 19.1163 133.535 20.5117 133.395 21.907C133.256 23.1628 133.395 24.4187 133.535 25.3954C133.814 26.3721 134.093 27.2093 134.651 27.7675C135.209 28.3256 135.907 28.7442 136.744 28.7442C137.721 28.7442 138.558 28.6047 139.256 28.0466C140.093 27.4884 140.791 26.7907 141.628 25.9535C142.326 25.1163 143.023 24.1396 143.721 22.8838C144.279 21.7675 144.977 20.6512 145.395 19.5349C145.675 18.8373 146.093 18.1396 146.372 17.4419L144.14 24.9768C143.861 26.0931 143.861 26.9303 144.14 27.628C144.558 28.3256 145.116 28.6047 145.954 28.6047C146.233 28.6047 146.651 28.4652 146.93 28.3256C147.349 28.1861 147.628 27.907 148.047 27.628C148.465 27.2093 148.744 26.7907 149.023 26.2326C149.302 25.6745 149.581 24.9768 149.861 24.1396L149.721 23.721ZM143.163 22.3256C142.186 24 141.209 25.3954 140.233 26.3721C139.256 27.3489 138.419 27.7675 137.581 27.7675C137.023 27.7675 136.605 27.3489 136.326 26.7907C136.186 26.0931 136.047 25.3954 136.047 24.4186C136.047 23.4419 136.186 22.3256 136.465 21.2093C136.744 20.0931 137.023 18.9768 137.442 17.8605C137.861 16.7442 138.279 15.628 138.698 14.3721C139.256 13.2559 139.814 12.1396 140.512 11.1628C141.209 10.1861 142.047 9.34888 142.884 8.79074C143.861 8.2326 144.837 7.95353 145.954 7.95353C146.372 7.95353 146.791 8.09307 147.209 8.09307C147.628 8.2326 147.907 8.37214 148.047 8.79074C148.186 9.20935 148.326 9.62795 148.326 10.1861C148.326 10.7442 148.186 11.4419 147.907 12.4187C147.349 13.814 146.651 15.2093 146.093 16.4652C145.256 18.6977 144.279 20.6512 143.163 22.3256Z" fill="black"/>
<path d="M164.93 9.7676C164.93 10.0467 164.791 10.3257 164.791 10.6048C164.791 10.8839 164.791 11.3025 164.791 11.7211C164.791 12.1397 165.07 12.4188 165.488 12.5583C165.767 12.6978 166.186 12.8374 166.465 12.6978C166.744 12.6978 167.023 12.5583 167.302 12.2792C167.581 12.1397 167.721 11.8606 167.861 11.5816C168 11.3025 168.14 11.0234 168.14 10.7443C168.279 10.1862 168.279 9.7676 168.14 9.349C168 8.93039 167.861 8.65132 167.721 8.37225C167.581 8.09318 167.302 7.81411 166.884 7.67458C166.605 7.53504 166.186 7.39551 165.907 7.39551C165.349 7.39551 164.651 7.67458 164.093 8.23272C163.395 8.79086 162.837 9.48853 162.14 10.1862C161.442 11.0234 160.884 12.0002 160.186 12.9769C159.488 14.0932 158.93 15.0699 158.372 16.1862C157.814 17.3025 157.256 18.2792 156.837 19.256C156.837 19.3955 156.698 19.535 156.698 19.535L156.977 18.6978L159.767 8.93039C159.628 8.51179 159.349 8.09318 158.93 7.95365C158.512 7.81411 157.954 7.67458 157.395 7.81411C157.116 7.81411 156.698 7.95365 156.419 8.09318C156.14 8.23272 155.86 8.37225 155.581 8.65132C155.302 8.93039 155.023 9.06993 154.744 9.20946C154.465 9.349 154.326 9.48853 154.047 9.62807L153.907 10.0467C154.047 10.0467 154.186 9.90714 154.465 9.7676C154.744 9.62807 154.884 9.48853 155.163 9.349C155.302 9.20946 155.581 9.20946 155.721 9.20946C155.861 9.20946 156 9.20946 156.14 9.349C156.279 9.7676 156.14 10.1862 156.14 10.8839C156 11.5816 155.86 12.4188 155.581 13.3955C155.302 14.3723 155.023 15.349 154.744 16.4653C154.465 17.5816 154.186 18.6978 153.767 19.8141C153.628 20.2327 153.488 20.7909 153.349 21.4885C153.209 22.1862 152.93 23.0234 152.651 23.7211C152.372 24.5583 152.233 25.256 151.954 25.8141C151.674 26.5118 151.395 26.9304 151.116 27.2095C150.977 27.349 150.837 27.4885 150.419 27.6281C150.14 27.7676 149.86 27.7676 149.581 27.7676L149.442 28.1862H156L156.14 27.7676C155.86 27.7676 155.721 27.7676 155.442 27.6281C155.163 27.4885 155.023 27.4885 155.023 27.2095C155.023 26.9304 155.023 26.6513 155.023 26.2327C155.023 25.8141 155.163 25.3955 155.302 24.9769C155.302 24.6978 155.442 24.4188 155.442 24.0002C155.581 23.442 155.86 22.8839 156.14 22.3257C156.698 21.0699 157.256 19.8141 157.814 18.5583C158.372 17.3025 159.07 16.0467 159.767 14.9304C160.465 13.8141 161.023 12.6978 161.721 11.8606C162.279 11.0234 162.837 10.1862 163.395 9.7676C163.954 9.20946 164.372 8.93039 164.651 9.06993C164.93 9.349 165.07 9.48853 164.93 9.7676Z" fill="black"/>
<path d="M180.558 16.0465C181.535 15.3488 182.233 14.3721 182.791 13.3954C183.349 12.4186 183.628 11.3023 183.488 10.0465C183.488 9.2093 183.209 8.51163 182.651 7.95349C182.093 7.39535 181.395 7.11628 180.558 7.11628C179.581 7.11628 178.605 7.39535 177.628 7.95349C176.651 8.51163 175.814 9.2093 175.116 9.90698C174.279 10.7442 173.581 11.5814 172.884 12.4186C172.326 13.1163 171.907 13.6744 171.488 14.3721L175.535 0C175.116 0 174.558 -1.3515e-07 174.14 0.139535C173.721 0.27907 173.163 0.279069 172.744 0.418604C172.326 0.558139 171.768 0.55814 171.349 0.697675C170.93 0.837209 170.372 0.837209 169.954 0.976744L169.535 1.53488H169.675C169.814 1.53488 169.814 1.53488 169.814 1.53488C169.954 1.53488 170.233 1.53488 170.372 1.53488C170.512 1.53488 170.791 1.53488 170.93 1.53488C171.07 1.53488 171.209 1.53488 171.349 1.67442C171.349 1.81395 171.488 1.95349 171.488 2.09302C171.209 3.76744 170.791 5.5814 170.233 7.67442C169.675 9.76744 169.116 12 168.558 14.2326C168 16.4651 167.302 18.9767 166.605 21.3488C165.907 23.8605 165.209 26.2326 164.512 28.6047H167.581L170.651 17.1628C170.93 16.6047 171.349 16.0465 171.768 15.3488C172.465 14.2326 173.163 13.2558 174 12.2791C174.837 11.3023 175.675 10.4651 176.512 9.76744C177.349 9.06977 178.186 8.65116 179.163 8.65116C179.581 8.65116 180 8.7907 180.14 9.06977C180.279 9.34884 180.419 9.76744 180.419 10.186C180.419 10.6047 180.279 11.0233 180.279 11.5814C180.14 12 180 12.4186 179.861 12.8372C179.581 13.6744 179.163 14.5116 178.605 15.2093C178.047 15.907 177.349 16.6047 176.651 17.1628C175.954 17.7209 175.116 18.1395 174.279 18.4186C173.442 18.6977 172.465 18.9767 171.628 18.9767L171.209 19.6744C171.628 20.3721 171.907 21.0698 172.326 22.0465C172.744 23.0233 173.163 24 173.721 24.9767C174.279 25.9535 174.837 26.7907 175.395 27.3488C175.954 28.0465 176.791 28.4651 177.628 28.4651C178.605 28.6047 179.442 28.3256 180.14 27.907C180.977 27.4884 181.535 26.7907 182.093 26.093L181.814 25.5349C181.675 25.6744 181.535 25.814 181.256 26.093C181.116 26.2326 180.837 26.5116 180.698 26.6512C180.419 26.7907 180.279 26.9302 180 27.0698C179.721 27.2093 179.581 27.2093 179.442 27.2093C179.023 27.2093 178.465 26.9302 178.047 26.2326C177.488 25.5349 177.07 24.6977 176.651 23.8605C176.233 22.8837 175.814 22.0465 175.535 21.0698C175.256 20.2326 174.977 19.5349 174.837 19.1163C175.675 18.8372 176.651 18.4186 177.768 18C178.744 17.4419 179.721 16.7442 180.558 16.0465Z" fill="black"/>
<path d="M197.302 8.2326C196.465 7.53493 195.209 7.25586 193.814 7.25586C192.698 7.25586 191.721 7.53493 190.605 8.09307C189.488 8.65121 188.651 9.34888 187.674 10.1861C186.698 11.1628 186 12.2791 185.302 13.5349C184.605 14.7907 184.046 16.3256 183.628 17.8605C183.209 19.5349 182.93 21.0698 182.93 22.4652C182.93 23.8605 183.07 24.9768 183.488 25.9535C183.907 26.9303 184.465 27.628 185.302 28.1861C186.139 28.7442 187.116 29.0233 188.233 28.8838C189.488 28.8838 190.605 28.6047 191.581 28.0466C192.558 27.4884 193.535 26.7907 194.372 26.0931C195.209 25.3954 195.907 24.5582 196.326 23.721C196.884 22.8838 197.302 22.0466 197.581 21.3489L196.884 21.2093C196.465 21.907 196.046 22.4652 195.628 23.1628C195.07 23.8605 194.512 24.4186 193.953 24.9768C193.395 25.5349 192.698 25.9535 192 26.3721C191.302 26.7907 190.605 27.0698 189.907 27.0698C188.93 27.2093 188.232 27.0698 187.674 26.5117C187.116 26.0931 186.698 25.3954 186.419 24.5582C186.139 23.721 186 22.7442 186.139 21.4884C186.139 20.3721 186.419 19.1163 186.698 17.721C186.698 17.5814 186.698 17.5814 186.837 17.4419C187.395 17.3024 187.953 17.1628 188.372 17.1628C189.209 17.0233 189.907 16.8838 190.744 16.6047C191.442 16.4652 192.279 16.1861 192.977 16.0466C193.674 15.907 194.512 15.628 195.488 15.2093C196.884 14.7907 197.86 14.0931 198.279 13.2559C198.837 12.4186 198.977 11.4419 198.837 10.6047C198.698 9.62795 198.139 8.93028 197.302 8.2326ZM195.907 11.0233C195.907 11.5814 195.767 12 195.488 12.4186C195.349 12.8373 195.07 13.2559 194.791 13.6745C194.512 14.0931 194.093 14.3721 193.674 14.6512C193.256 14.9303 192.837 15.0698 192.279 15.2093L187.116 16.6047C187.256 16.3256 187.256 16.1861 187.395 15.907C187.674 15.2093 187.953 14.5117 188.233 13.814C188.512 13.1163 188.93 12.4186 189.209 11.721C189.628 11.0233 190.046 10.4652 190.465 9.90702C190.884 9.34888 191.442 8.93028 191.86 8.65121C192.419 8.37214 192.977 8.09307 193.535 8.09307C194.093 8.09307 194.512 8.09307 194.93 8.37214C195.209 8.51167 195.488 8.79074 195.628 9.20935C195.767 9.48842 195.907 9.90702 195.907 10.1861C195.907 10.4652 195.907 10.7442 195.907 11.0233Z" fill="black"/>
<path d="M202.465 23.163C202.605 22.7444 202.744 22.1862 202.884 21.6281C203.023 21.0699 203.163 20.3723 203.442 19.8141C203.581 19.1165 203.721 18.5583 204 18.0002L206.651 8.79087H210L210.279 7.95366H206.93L208.326 3.20947H207.628C207.209 4.18622 206.791 4.88389 206.093 5.58157C205.395 6.13971 204.837 6.69784 204.14 6.97691C203.442 7.39552 202.744 7.53505 202.047 7.67459C201.349 7.81412 200.791 7.81412 200.372 7.81412L200.093 8.65133C200.233 8.65133 200.512 8.65133 200.791 8.65133C201.07 8.65133 201.349 8.65133 201.628 8.65133C201.907 8.65133 202.186 8.65133 202.465 8.65133C202.744 8.65133 202.884 8.79087 203.023 8.79087C203.023 9.20947 202.884 9.76761 202.884 10.6048C202.744 11.442 202.605 12.2792 202.326 13.3955C202.047 14.3723 201.768 15.4885 201.488 16.6048C201.209 17.7211 200.93 18.8374 200.512 19.9537C200.233 21.0699 199.954 22.0467 199.674 22.8839C199.395 23.7211 199.256 24.5583 199.116 24.9769C198.977 25.5351 198.977 26.0932 198.977 26.5118C198.977 26.9304 199.116 27.349 199.256 27.6281C199.395 27.9071 199.674 28.0467 199.954 28.1862C200.233 28.3258 200.512 28.3258 200.93 28.3258C201.349 28.3258 201.768 28.1862 202.186 28.0467C202.605 27.9071 203.163 27.6281 203.581 27.2095C204 26.7909 204.558 26.3723 204.977 25.6746C205.395 25.1164 205.814 24.2792 206.093 23.442L205.674 23.0234C205.256 24.0002 204.698 24.8374 204.14 25.3955C203.581 25.9537 203.163 26.2327 202.744 26.2327C202.465 26.2327 202.186 26.0932 202.047 25.6746C201.907 25.256 202.047 24.6978 202.186 23.7211C202.326 24.0002 202.465 23.7211 202.465 23.163Z" fill="black"/>
<path d="M214.884 5.16258C215.442 5.16258 215.86 5.02304 216.418 4.60444C216.837 4.18583 217.256 3.76723 217.395 3.34862C217.535 2.79048 217.395 2.37188 217.256 2.09281C216.977 1.6742 216.558 1.53467 216 1.53467C215.442 1.53467 214.884 1.6742 214.465 2.09281C214.046 2.51141 213.767 2.93002 213.628 3.34862C213.488 3.90676 213.488 4.32537 213.767 4.60444C213.907 4.88351 214.325 5.16258 214.884 5.16258Z" fill="black"/>
<path d="M211.814 23.5816C211.953 23.0234 212.093 22.3257 212.372 21.7676C212.512 21.0699 212.791 20.5118 212.93 20.0932L215.721 10.7443C215.86 10.3257 216 9.90714 216 9.48853C216 9.06993 216 8.79086 215.86 8.51179C215.721 8.23272 215.581 7.95365 215.302 7.81411C215.023 7.67458 214.744 7.53504 214.325 7.39551C214.046 7.39551 213.628 7.39551 213.209 7.67458C212.791 7.81411 212.372 8.23272 211.953 8.65132C211.535 9.06993 211.116 9.62807 210.698 10.1862C210.279 10.8839 210 11.5816 209.721 12.4188L210.139 12.6978C210.139 12.5583 210.279 12.2792 210.419 12.0002C210.558 11.7211 210.837 11.3025 210.977 11.0234C211.256 10.6048 211.395 10.3257 211.674 10.0467C211.953 9.7676 212.093 9.62807 212.232 9.48853C212.372 9.48853 212.372 9.48853 212.372 9.62807C212.372 9.7676 212.372 9.90714 212.372 10.0467C212.372 10.4653 212.372 11.163 212.093 12.1397C211.953 12.9769 211.674 13.9536 211.395 15.0699C211.116 16.0467 210.837 17.0234 210.558 18.0002C210.279 18.9769 210 19.6746 209.86 20.2327C209.721 20.6513 209.581 21.0699 209.442 21.6281C209.302 22.0467 209.163 22.4653 209.023 22.8839C208.884 23.3025 208.744 23.7211 208.605 24.1397C208.465 24.5583 208.325 24.9769 208.186 25.3955C207.907 26.5118 207.907 27.2095 208.325 27.9071C208.744 28.4653 209.163 28.7443 210 28.7443C210.279 28.7443 210.698 28.6048 210.977 28.4653C211.395 28.3257 211.674 28.0467 212.093 27.7676C212.512 27.349 212.791 26.9304 213.07 26.3723C213.349 25.8141 213.628 25.1164 213.907 24.2792L213.488 24.0002C213.488 24.1397 213.349 24.2792 213.209 24.6978C213.07 24.9769 212.93 25.3955 212.651 25.8141C212.512 26.2327 212.232 26.5118 211.953 26.7909C211.674 27.0699 211.535 27.2095 211.395 27.2095C211.395 27.2095 211.256 27.2095 211.256 27.0699C211.116 26.9304 211.116 26.7909 211.116 26.6513C211.116 26.3723 211.116 25.9536 211.116 25.535C211.535 24.6978 211.674 24.1397 211.814 23.5816Z" fill="black"/>
<path d="M232.884 24.0002L232.465 23.7211C232.465 23.8606 232.326 24.1397 232.047 24.5583C231.907 24.9769 231.628 25.3955 231.349 25.8141C231.07 26.2327 230.791 26.5118 230.512 26.6513C230.233 26.7909 230.093 26.7909 229.953 26.5118C229.814 26.2327 229.954 25.8141 230.093 25.1164C230.233 24.4188 230.372 23.7211 230.651 22.7444C230.93 21.9071 231.209 20.9304 231.488 19.9537C231.767 18.9769 232.186 18.0002 232.465 17.0234C232.744 16.0467 233.023 15.2095 233.302 14.3723C233.581 13.535 233.721 12.8374 233.86 12.4188C234 11.442 234 10.6048 234 9.90714C234 9.20947 233.721 8.79086 233.442 8.37226C233.163 7.95365 232.744 7.67458 232.326 7.53505C231.907 7.39551 231.488 7.25598 231.07 7.39551C230.233 7.39551 229.535 7.67458 228.698 8.37226C227.86 9.06993 227.163 9.90714 226.326 11.0234C225.628 12.1397 224.791 13.256 224.093 14.5118C223.395 15.7676 222.698 17.0234 222.14 18.2792C221.581 19.535 221.023 20.6513 220.605 21.6281C220.465 21.9071 220.326 22.1862 220.326 22.3257L222.14 15.7676C222.419 14.7909 222.698 13.8141 222.977 12.8374C223.256 11.8606 223.395 11.0234 223.535 10.1862C223.674 9.349 223.674 8.65133 223.535 8.23272C223.395 7.67458 223.256 7.25598 222.977 7.11644C222.558 6.83737 222 6.83737 221.581 6.97691C221.023 7.11644 220.605 7.53505 220.186 7.95365C219.767 8.37226 219.349 9.06993 218.93 9.76761C218.512 10.4653 218.233 11.3025 217.953 12.1397L218.372 12.2792C218.372 12.0002 218.512 11.7211 218.791 11.3025C219.07 10.8839 219.349 10.4653 219.628 10.0467C219.907 9.62807 220.186 9.349 220.326 9.20947C220.605 9.06993 220.744 9.06993 220.744 9.349C220.884 9.90714 220.744 10.7444 220.465 11.7211C220.186 12.6978 219.907 14.0932 219.488 15.6281C219.349 16.3257 219.07 16.8839 218.93 17.5816C218.791 18.2792 218.512 18.9769 218.372 19.6746L216 28.1862H218.93L219.349 26.5118C219.628 25.9537 219.907 25.3955 220.186 24.6978C220.744 23.442 221.302 22.0467 222 20.6513C222.698 19.256 223.395 17.7211 224.093 16.3257C224.791 14.9304 225.628 13.535 226.465 12.4188C227.302 11.3025 228 10.3257 228.698 9.48854C229.395 8.79086 230.093 8.37226 230.651 8.37226C231.209 8.37226 231.488 8.79086 231.488 9.62807C231.488 10.4653 231.209 11.7211 230.791 13.3955C230.512 14.3723 230.233 15.349 229.953 16.1862C229.674 17.163 229.395 18.0002 229.116 18.9769C228.837 19.8141 228.558 20.7909 228.14 21.6281C227.86 22.6048 227.581 23.442 227.163 24.4188C227.023 24.9769 226.884 25.535 227.023 25.9537C227.023 26.3723 227.163 26.7909 227.302 27.0699C227.442 27.349 227.581 27.6281 227.86 27.7676C228.14 27.9071 228.419 28.0467 228.698 28.0467C229.116 28.0467 229.535 28.0467 229.953 27.9071C230.372 27.7676 230.791 27.4885 231.209 27.2095C231.628 26.7909 232.047 26.3723 232.326 25.8141C232.605 25.256 232.605 24.8374 232.884 24.0002Z" fill="black"/>
<path d="M254.093 3.62785C253.954 3.34878 253.954 3.20925 253.814 3.06971C253.675 2.93018 253.395 2.93018 253.116 2.93018C252.977 2.93018 252.698 2.93018 252.419 3.06971C252.14 3.06971 252 3.20925 251.721 3.34878C251.442 3.48832 251.302 3.62785 251.163 3.76739C251.023 3.90692 250.884 4.18599 250.744 4.32552C250.884 4.74413 251.023 5.0232 251.163 5.30227C251.302 5.58134 251.442 5.99994 251.442 6.27901C251.581 6.55808 251.581 6.83715 251.581 7.11622C251.581 7.39529 251.442 7.67436 251.302 7.8139C251.302 7.95343 251.163 7.95343 251.023 8.09297C250.884 8.2325 250.884 8.37204 250.744 8.37204C250.605 8.51157 250.605 8.65111 250.465 8.79064C249.907 8.2325 249.349 7.8139 248.651 7.39529C247.814 6.97669 246.837 6.83715 245.861 6.83715C244.744 6.83715 243.628 6.97669 242.512 7.39529C241.395 7.8139 240.419 8.37204 239.581 9.06971C238.744 9.76738 237.907 10.6046 237.209 11.4418C236.512 12.4185 236.093 13.3953 235.814 14.372C235.535 15.4883 235.535 16.4651 235.675 17.3023C235.814 18.1395 236.233 18.9767 236.791 19.5348C237.349 20.093 237.907 20.5116 238.744 20.9302C237.768 21.0697 236.93 21.3488 236.093 21.9069C235.116 22.4651 234.558 23.3023 234.279 24.1395C234.14 24.6976 234 25.1162 234.14 25.5348C234.14 25.9534 234.419 26.2325 234.558 26.5116C234.837 26.7906 235.116 26.9302 235.535 27.0697C235.954 27.2092 236.372 27.3488 236.93 27.3488C237.488 27.3488 238.186 27.3488 239.023 27.2092C239.861 27.0697 240.837 27.0697 241.674 27.0697C242.512 27.0697 243.349 27.0697 244.047 27.2092C244.744 27.3488 245.163 27.7674 245.302 28.3255C245.581 29.1627 245.581 29.9999 245.302 30.6976C245.023 31.5348 244.605 32.2325 243.907 32.7906C243.209 33.3488 242.372 33.9069 241.395 34.3255C240.419 34.7441 239.302 34.8837 238.186 34.8837C237.349 34.8837 236.651 34.7441 236.233 34.6046C235.675 34.4651 235.395 34.0465 235.116 33.6279C234.837 33.2092 234.698 32.6511 234.837 31.9534C234.837 31.2558 234.977 30.5581 235.256 29.5813C235.256 29.4418 235.256 29.3023 235.116 29.0232C234.977 28.8837 234.837 28.7441 234.558 28.6046C234.419 28.4651 234.14 28.3255 233.861 28.3255C233.581 28.3255 233.302 28.186 233.023 28.3255C232.884 28.3255 232.744 28.4651 232.605 28.4651C232.465 28.4651 232.326 28.6046 232.326 28.7441C232.186 28.8837 232.186 28.8837 232.047 29.0232C232.047 29.1627 231.907 29.1627 231.907 29.1627C231.628 30.1395 231.488 30.9767 231.628 31.8139C231.768 32.6511 232.047 33.2092 232.605 33.7674C233.163 34.3255 233.721 34.7441 234.558 35.0232C235.395 35.3023 236.372 35.4418 237.349 35.5813C238.884 35.7209 240.419 35.4418 241.674 34.8837C242.93 34.3255 244.186 33.7674 245.023 32.9302C246 32.093 246.698 31.1162 247.256 29.9999C247.814 28.8837 247.954 27.7674 247.954 26.6511C247.954 26.093 247.814 25.6744 247.535 25.2558C247.256 24.8372 246.977 24.5581 246.558 24.4185C246.14 24.1395 245.721 23.9999 245.302 23.8604C244.744 23.7209 244.326 23.7209 243.768 23.7209C243.209 23.7209 242.651 23.7209 241.954 23.8604C241.395 23.8604 240.698 23.9999 240.14 23.9999C239.581 23.9999 239.023 24.1395 238.465 24.1395C237.907 24.1395 237.488 24.1395 237.07 24.279C236.512 24.279 236.093 24.1395 235.814 23.9999C235.535 23.8604 235.535 23.5813 235.535 23.1627C235.675 22.6046 236.233 22.186 237.209 21.9069C237.907 21.6279 238.744 21.4883 239.861 21.3488C240.419 21.4883 240.837 21.4883 241.395 21.4883C242.512 21.4883 243.488 21.3488 244.605 20.9302C245.721 20.5116 246.698 20.093 247.535 19.3953C248.372 18.6976 249.209 17.9999 249.768 17.0232C250.465 16.186 250.884 15.2092 251.163 14.2325C251.442 13.1162 251.442 12.1395 251.302 11.3023C251.163 10.4651 250.884 9.76739 250.465 9.20925C250.744 9.06971 250.884 8.93018 251.163 8.79064C251.581 8.51157 251.861 8.09297 252.14 7.8139C252.698 7.11622 253.116 6.41855 253.395 5.58134C254.093 5.0232 254.233 4.32552 254.093 3.62785ZM248.372 14.6511C248.093 15.4883 247.814 16.3255 247.395 17.1627C246.977 17.9999 246.419 18.6976 245.861 19.2558C245.302 19.8139 244.744 20.372 244.047 20.6511C243.349 21.0697 242.651 21.2092 241.954 21.2092C241.256 21.2092 240.698 21.0697 240.279 20.6511C239.861 20.2325 239.442 19.8139 239.302 19.2558C239.023 18.6976 239.023 17.9999 239.023 17.1627C239.023 16.3255 239.163 15.4883 239.302 14.6511C239.581 13.8139 239.861 12.9767 240.279 12.1395C240.698 11.3023 241.256 10.6046 241.814 9.90692C242.372 9.20925 242.93 8.79064 243.628 8.37204C244.326 7.95343 245.023 7.8139 245.721 7.8139C246.419 7.8139 246.977 7.95343 247.395 8.37204C247.814 8.79064 248.233 9.20925 248.372 9.90692C248.651 10.6046 248.651 11.3023 248.651 12.1395C248.791 12.9767 248.651 13.8139 248.372 14.6511Z" fill="black"/>
</svg>
