<?xml version="1.0" encoding="UTF-8"?> <!-- Generator: Adobe Illustrator 26.4.1, SVG Export Plug-In . SVG Version: 6.00 Build 0) --> <svg xmlns="http://www.w3.org/2000/svg" xmlns:xlink="http://www.w3.org/1999/xlink" id="Слой_1" x="0px" y="0px" viewBox="0 0 1366 768" style="enable-background:new 0 0 1366 768;" xml:space="preserve"> <style type="text/css"> .st0{fill:#0E0E0E;} </style> <g> <g> <path class="st0" d="M116,401.3C116,309,179.1,240,264.7,240c32.2,0,73.7,10.2,99.9,30.5l8.9,60.6h-10.2l-8-20.3 c-18.6-46.6-63.9-61-95.3-61c-63.1,0-112.6,59.3-112.6,144c0,88.9,46.6,151.6,114.8,151.6c33.9,0,55.5-15.7,79.2-44.5v-73.3 l-18.2-5.5l-45.3-1.3v-7.2h116v7.2l-22.4,5.1v125.3h-8l-14.8-44.5c-26.7,33.5-54.6,50.8-94,50.8C174.5,557.6,116,492.8,116,401.3z "></path> <path class="st0" d="M412,544.1l24.6-1.3l9.7-5.5v-277l-9.7-5.5l-24.6-1.3v-7.2h99.1v7.2l-25,1.3l-9.7,5.5v277l9.7,5.5l25,1.3v7.2 H412V544.1z"></path> <path class="st0" d="M538.2,397.5c0-92.7,58.9-157.5,135.9-157.5c78.3,0,133.4,69,133.4,160.1c0,92.7-58.9,157.5-136.4,157.5 C592.8,557.6,538.2,489,538.2,397.5z M678.3,547c58.4,0,97.8-58.4,97.8-137.2c0-94.4-48.3-160.1-109.3-160.1 c-58,0-97.4,58.9-97.4,138.1C569.5,481.8,617.8,547,678.3,547z"></path> <path class="st0" d="M835.8,544.1l24.6-1.3l9.7-5.5v-277l-9.7-5.5l-24.6-1.3v-7.2h99.1v7.2l-25,1.3l-9.7,5.5v277l9.7,5.5l25,1.3 v7.2h-99.1V544.1z"></path> <path class="st0" d="M1151.7,544.1l38.5-4.7v-8.9l-33-86.8h-121.1l-33,86.8v8.9l36.4,4.7v7.2h-75.4v-7.2l23.3-5.1l103.3-269.8 l-8.9-23.7v-5.1h29.6L1226.7,539l23.3,5.1v7.2h-98.2V544.1z M1153.4,433.1l-56.8-148.6l-56.7,148.6H1153.4z"></path> </g> </g> </svg> 